<?xml version="1.0" encoding="utf-8"?>
<!-- Generator: Adobe Illustrator 26.5.0, SVG Export Plug-In . SVG Version: 6.00 Build 0)  -->
<svg version="1.1" xmlns="http://www.w3.org/2000/svg" xmlns:xlink="http://www.w3.org/1999/xlink" x="0px" y="0px"
	 viewBox="0 0 1920 1699" style="enable-background:new 0 0 1920 1699;" xml:space="preserve">
<style type="text/css">
	.st0{opacity:0.58;fill:none;stroke:#E0E0E0;stroke-width:0.5;stroke-miterlimit:10;}
	.st1{opacity:0.58;}
	.st2{fill:none;stroke:#E0E0E0;stroke-width:0.5;stroke-miterlimit:10;}
	.st3{fill:none;stroke:#000000;stroke-miterlimit:10;}
	.st4{font-family:'Georgia-BoldItalic';}
	.st5{font-size:36px;}
	.st6{fill:none;}
	.st7{font-family:'Georgia';}
	.st8{font-size:24px;}
	.st9{fill:none;stroke:#808080;stroke-width:0.5;stroke-miterlimit:10;}
	.st10{fill:#474760;}
	.st11{fill:none;stroke:#000000;stroke-miterlimit:10;stroke-dasharray:10,10;}
	.st12{fill:#FFFFFF;}
	.st13{fill:none;stroke:#000000;stroke-width:2;stroke-linecap:round;stroke-miterlimit:10;}
	.st14{fill:none;stroke:#000000;stroke-width:2;stroke-linecap:round;stroke-miterlimit:10;stroke-dasharray:0,15.2468;}
	.st15{fill:none;stroke:#000000;stroke-miterlimit:10;stroke-dasharray:9.8676,9.8676;}
	.st16{fill:none;stroke:#000000;stroke-width:0.5;stroke-miterlimit:10;}
	.st17{fill:none;stroke:#000000;stroke-width:2;stroke-linecap:round;stroke-miterlimit:10;stroke-dasharray:0,15;}
	.st18{fill:none;stroke:#000000;stroke-width:0.4665;stroke-miterlimit:10;}
	.st19{fill:none;stroke:#000000;stroke-width:0.75;stroke-linecap:round;stroke-miterlimit:10;stroke-dasharray:0.5,4;}
	.st20{fill:#FFFFFF;stroke:#000000;stroke-miterlimit:10;}
	.st21{fill:none;stroke:#000000;stroke-miterlimit:10;stroke-dasharray:30;}
	.st22{fill:none;stroke:#000000;stroke-miterlimit:10;stroke-dasharray:20;}
	.st23{stroke:#FFFFFF;stroke-width:1.5;stroke-miterlimit:10;}
	.st24{stroke:#FFFFFF;stroke-width:2;stroke-miterlimit:10;}
	.st25{fill:#231F20;stroke:#FFFFFF;stroke-width:0.75;stroke-miterlimit:10;}
	.st26{fill:none;stroke:#58595B;stroke-width:0.5;stroke-miterlimit:10;}
	.st27{fill:none;stroke:#231F20;stroke-miterlimit:10;}
	.st28{fill:none;stroke:#231F20;stroke-width:0.25;stroke-miterlimit:10;stroke-dasharray:11.8405,11.8405;}
	.st29{fill:none;stroke:#231F20;stroke-width:0.25;stroke-miterlimit:10;stroke-dasharray:11.9914,11.9914;}
	.st30{fill:none;stroke:#231F20;stroke-width:0.25;stroke-miterlimit:10;stroke-dasharray:11.7314,11.7314;}
	.st31{fill:none;stroke:#231F20;stroke-width:0.25;stroke-miterlimit:10;stroke-dasharray:12.0584,12.0584;}
	.st32{fill:#929497;}
	.st33{fill:none;stroke:#A6A8AB;stroke-miterlimit:10;}
	.st34{fill:#A6A8AB;}
</style>
<g id="grid">
	<g id="colunas">
		<rect x="176" y="70" class="st0" width="1568" height="940"/>
		<g class="st1">
			<line class="st2" x1="960.5" y1="0" x2="960.5" y2="1080"/>
		</g>
		<g class="st1">
			<line class="st2" x1="568.5" y1="0" x2="568.5" y2="1080"/>
		</g>
		<g class="st1">
			<line class="st2" x1="1352.5" y1="0" x2="1352.5" y2="1080"/>
		</g>
	</g>
	<g id="_x33__x2F_3">
		<line class="st0" x1="177" y1="383.83" x2="1743.5" y2="383.83"/>
		<line class="st0" x1="177" y1="697.17" x2="1743.5" y2="697.17"/>
	</g>
	<g id="_x34_">
		<line class="st0" x1="177.42" y1="540" x2="1743.92" y2="540"/>
		<line class="st0" x1="177.42" y1="372" x2="1743.92" y2="372"/>
		<line class="st0" x1="177.42" y1="708" x2="1743.92" y2="708"/>
	</g>
</g>
<g id="título_seção">
</g>
<g id="textos">
	<text transform="matrix(1 0 0 1 1255.2119 201.6558)" class="st4 st5">solarpunk</text>
	<rect x="186" y="233.11" class="st6" width="392" height="753.89"/>
	<text transform="matrix(1 0 0 1 263.8789 251.25)"><tspan x="0" y="0" class="st7 st8">desaceleração; decrescimento</tspan><tspan x="-5.45" y="43.8" class="st7 st8">comunidades reguladas com o </tspan><tspan x="-63.75" y="72.6" class="st7 st8">metabolismo de ecossistemas locais</tspan><tspan x="206.66" y="116.4" class="st7 st8">bem-viver</tspan><tspan x="38.72" y="160.2" class="st7 st8">prosperidade comunitária</tspan><tspan x="48.5" y="204" class="st7 st8">parentesco multiespécies</tspan><tspan x="-61.52" y="247.8" class="st7 st8">energia renovável descentralizada e </tspan><tspan x="133.44" y="276.6" class="st7 st8">de baixo impacto</tspan><tspan x="17.67" y="320.4" class="st7 st8">transporte ativo ou coletivo, </tspan><tspan x="221.37" y="349.2" class="st7 st8">acessível</tspan><tspan x="-16.2" y="393" class="st7 st8">redução de jornada de trabalho</tspan><tspan x="170.16" y="436.8" class="st7 st8">permacultura</tspan><tspan x="-49.04" y="480.6" class="st7 st8">sistemas alimentares baseados em </tspan><tspan x="236.52" y="509.4" class="st7 st8">plantas</tspan><tspan x="78.82" y="553.2" class="st7 st8">tecnologias reparáveis</tspan><tspan x="30.56" y="597" class="st7 st8">compartilhamento de bens</tspan><tspan x="185.23" y="640.8" class="st7 st8">regeneração</tspan><tspan x="165.22" y="684.6" class="st7 st8">cultura maker</tspan><tspan x="152.85" y="728.4" class="st7 st8">* colaboração *</tspan></text>
	<polyline class="st9" points="593,244.53 1253.5,192.45 593,291 	"/>
	<polyline class="st9" points="593,360.19 1253.5,192.45 593,406.15 	"/>
	<polyline class="st9" points="593,448.66 1253.5,192.45 593,492.19 	"/>
	<polyline class="st9" points="593,564.7 1253.5,192.45 593,637.21 	"/>
	<polyline class="st9" points="593,680.87 1253.5,192.45 593,724.02 	"/>
	<polyline class="st9" points="593,799.09 1253.5,192.45 593,841.98 	"/>
	<polyline class="st9" points="593,887.94 1253.5,192.45 593,929.3 	"/>
	<line class="st9" x1="593" y1="976.28" x2="1253.5" y2="192.45"/>
</g>
<g id="placeholders">
	<rect x="644" y="69.64" class="st6" width="240" height="84.36"/>
	<text transform="matrix(1 0 0 1 661.625 87.7847)"><tspan x="0" y="0" class="st10 st7 st8">“dream bigger than </tspan><tspan x="58.24" y="28.8" class="st10 st7 st8">despair”</tspan></text>
</g>
<g id="linhas">
	<line class="st11" x1="1353" y1="-754.19" x2="1353" y2="181.3"/>
	<rect x="176.5" y="206.5" class="st11" width="435" height="803"/>
	<line class="st3" x1="2134.5" y1="164.5" x2="1392.49" y2="-270.75"/>
	<line class="st3" x1="1253.5" y1="192.5" x2="874.5" y2="83.5"/>
	<polyline class="st3" points="644.65,-983.44 176,-983.44 176,83 651.04,83 	"/>
	<line class="st11" x1="1458.02" y1="192.45" x2="1919.89" y2="192.45"/>
	<g>
		<text transform="matrix(0 1 -1 0 1731.4131 1060.4897)"><tspan x="0" y="0" class="st7 st8">recursos ecossistêmicos, biotecnologia</tspan><tspan x="0" y="36.8" class="st7 st8">restauração de restingas, mangues e matas ciliares</tspan><tspan x="0" y="73.6" class="st7 st8">economia de cuidado</tspan><tspan x="0" y="110.4" class="st7 st8">turismo de base comunitária</tspan><tspan x="0" y="147.2" class="st7 st8">cooperativas</tspan><tspan x="0" y="184" class="st7 st8">economia circular</tspan><tspan x="0" y="220.8" class="st7 st8">balões eólicos</tspan><tspan x="0" y="257.6" class="st7 st8">telhas solares</tspan><tspan x="0" y="294.4" class="st7 st8">pequenas centrais hidrelétricas</tspan><tspan x="0" y="331.2" class="st7 st8">biomassa marinha</tspan><tspan x="0" y="368" class="st7 st8">caiaques</tspan><tspan x="0" y="404.8" class="st7 st8">jangadas</tspan><tspan x="0" y="441.6" class="st7 st8">pequenos barcos</tspan><tspan x="0" y="478.4" class="st7 st8">surf</tspan><tspan x="0" y="515.2" class="st7 st8">terminais de integração</tspan><tspan x="0" y="552" class="st7 st8">teleférico</tspan><tspan x="0" y="588.8" class="st7 st8">educação livre</tspan><tspan x="0" y="625.6" class="st7 st8">cuidado comunitário</tspan><tspan x="0" y="662.4" class="st7 st8">lazer</tspan><tspan x="0" y="699.2" class="st7 st8">expressão criativa</tspan><tspan x="0" y="736" class="st7 st8">bibliotecas</tspan><tspan x="0" y="772.8" class="st7 st8">oficinas comunitárias</tspan><tspan x="0" y="809.6" class="st7 st8">fablabs</tspan><tspan x="0" y="846.4" class="st7 st8">armazéns públicos</tspan><tspan x="0" y="883.2" class="st7 st8">hortas comunitárias</tspan><tspan x="0" y="920" class="st7 st8">jardinagem de corais</tspan><tspan x="0" y="956.8" class="st7 st8">agroflorestas</tspan><tspan x="0" y="993.6" class="st7 st8">coprodução</tspan><tspan x="0" y="1030.4" class="st7 st8">biofabricação</tspan><tspan x="0" y="1067.2" class="st7 st8">parentesco</tspan></text>
	</g>
	<g>
		<g>
			<polyline class="st3" points="394,1010 394,1032.95 1778.61,1032.95 			"/>
			<g>
				<polygon points="1771.32,1041.95 1769.82,1040.33 1777.77,1032.95 1769.82,1025.56 1771.32,1023.95 1781,1032.95 				"/>
			</g>
		</g>
	</g>
</g>
<g id="diagramas">
	<g id="exponencial">
	</g>
	<g id="extraterrestre">
	</g>
	<g id="limites_x5F_planetarios">
	</g>
	
		<image style="overflow:visible;opacity:0.89;" width="1326" height="744" xlink:href="DC2278A5.jpg"  transform="matrix(0.5895 0 0 0.5895 765 384)">
	</image>
	<g id="Camada_13">
	</g>
</g>
</svg>
