<?xml version="1.0" encoding="utf-8"?>
<!-- Generator: Adobe Illustrator 26.5.0, SVG Export Plug-In . SVG Version: 6.00 Build 0)  -->
<svg version="1.1" xmlns="http://www.w3.org/2000/svg" xmlns:xlink="http://www.w3.org/1999/xlink" x="0px" y="0px"
	 viewBox="0 0 1920 1080" style="enable-background:new 0 0 1920 1080;" xml:space="preserve">
<style type="text/css">
	.st0{opacity:0.58;fill:none;stroke:#E0E0E0;stroke-width:0.5;stroke-miterlimit:10;}
	.st1{opacity:0.58;}
	.st2{fill:none;stroke:#E0E0E0;stroke-width:0.5;stroke-miterlimit:10;}
	.st3{fill:none;}
	.st4{font-family:'Georgia';}
	.st5{font-size:16px;}
	.st6{font-size:32px;}
	.st7{font-family:'Georgia-Italic';}
	.st8{font-size:24px;}
	.st9{font-size:36px;}
	.st10{font-size:18px;}
	.st11{fill:none;stroke:#000000;stroke-miterlimit:10;}
	.st12{fill:none;stroke:#808080;stroke-width:0.5;stroke-miterlimit:10;}
	.st13{fill:none;stroke:#000000;stroke-miterlimit:10;stroke-dasharray:10,10;}
	.st14{fill:#FFFFFF;}
	.st15{fill:none;stroke:#000000;stroke-width:2;stroke-linecap:round;stroke-miterlimit:10;}
	.st16{fill:none;stroke:#000000;stroke-width:2;stroke-linecap:round;stroke-miterlimit:10;stroke-dasharray:0,15.2468;}
	.st17{fill:none;stroke:#000000;stroke-miterlimit:10;stroke-dasharray:9.8676,9.8676;}
	.st18{fill:none;stroke:#000000;stroke-width:0.5;stroke-miterlimit:10;}
	.st19{fill:none;stroke:#000000;stroke-width:2;stroke-linecap:round;stroke-miterlimit:10;stroke-dasharray:0,15;}
	.st20{fill:none;stroke:#000000;stroke-width:0.4665;stroke-miterlimit:10;}
	.st21{fill:none;stroke:#000000;stroke-width:0.75;stroke-linecap:round;stroke-miterlimit:10;stroke-dasharray:0.5,4;}
	.st22{fill:#FFFFFF;stroke:#000000;stroke-miterlimit:10;}
	.st23{fill:none;stroke:#000000;stroke-miterlimit:10;stroke-dasharray:30;}
	.st24{fill:none;stroke:#000000;stroke-miterlimit:10;stroke-dasharray:20;}
	.st25{stroke:#FFFFFF;stroke-width:1.5;stroke-miterlimit:10;}
	.st26{stroke:#FFFFFF;stroke-width:2;stroke-miterlimit:10;}
	.st27{fill:#231F20;stroke:#FFFFFF;stroke-width:0.75;stroke-miterlimit:10;}
	.st28{fill:none;stroke:#58595B;stroke-width:0.5;stroke-miterlimit:10;}
	.st29{fill:none;stroke:#231F20;stroke-miterlimit:10;}
	.st30{fill:none;stroke:#231F20;stroke-width:0.25;stroke-miterlimit:10;stroke-dasharray:11.8405,11.8405;}
	.st31{fill:none;stroke:#231F20;stroke-width:0.25;stroke-miterlimit:10;stroke-dasharray:11.9914,11.9914;}
	.st32{fill:none;stroke:#231F20;stroke-width:0.25;stroke-miterlimit:10;stroke-dasharray:11.7314,11.7314;}
	.st33{fill:none;stroke:#231F20;stroke-width:0.25;stroke-miterlimit:10;stroke-dasharray:12.0584,12.0584;}
	.st34{fill:#929497;}
	.st35{fill:none;stroke:#A6A8AB;stroke-miterlimit:10;}
	.st36{fill:#A6A8AB;}
	.base{fill:none;stroke:#ffffff;stroke-width:15;stroke-opacity:'0.0';}
</style>
<g id="grid">
	<g id="colunas">
		<rect x="176" y="70" class="st0" width="1568" height="940"/>
		<g class="st1">
			<line class="st2" x1="960.5" y1="0" x2="960.5" y2="1080"/>
		</g>
		<g class="st1">
			<line class="st2" x1="568.5" y1="0" x2="568.5" y2="1080"/>
		</g>
		<g class="st1">
			<line class="st2" x1="1352.5" y1="0" x2="1352.5" y2="1080"/>
		</g>
	</g>
	<g id="_x33__x2F_3">
		<line class="st0" x1="177" y1="383.83" x2="1743.5" y2="383.83"/>
		<line class="st0" x1="177" y1="697.17" x2="1743.5" y2="697.17"/>
	</g>
	<g id="_x34_">
		<line class="st0" x1="177.42" y1="540" x2="1743.92" y2="540"/>
		<line class="st0" x1="177.42" y1="372" x2="1743.92" y2="372"/>
		<line class="st0" x1="177.42" y1="708" x2="1743.92" y2="708"/>
	</g>
</g>
<g id="título_seção">
</g>
<g id="textos">
	<rect x="1569.13" y="117.64" class="st3" width="145.87" height="70.36"/>
	<text transform="matrix(1 0 0 1 1569.1279 129.7363)"><tspan x="0" y="0" class="st4 st5">barreiras </tspan><tspan x="0" y="19.2" class="st4 st5">psicológicas para </tspan><tspan x="0" y="38.4" class="st4 st5">ação climática</tspan></text>
	<rect x="960" y="830.64" class="st3" width="393" height="55.36"/>
	<text transform="matrix(1 0 0 1 1114.4375 854.8325)" class="st4 st6">afetos</text>
	<rect x="569" y="830.64" class="st3" width="391" height="55.36"/>
	<text transform="matrix(1 0 0 1 673.2266 854.8325)" class="st4 st6">colaborações</text>
	<rect x="194" y="830.64" class="st3" width="375" height="45.36"/>
	<text transform="matrix(1 0 0 1 285.8125 854.8325)" class="st4 st6">simbiogênese</text>
	<rect x="470" y="746.64" class="st3" width="656" height="45.36"/>
	<text transform="matrix(1 0 0 1 501.7578 770.8325)" class="st4 st6">reconhecimento de relações multiespécies</text>
	<rect x="1291.13" y="839.64" class="st3" width="513.87" height="55.36"/>
	<text transform="matrix(1 0 0 1 1433.853 857.7847)" class="st7 st8">“first, there is a map”</text>
	<rect x="1198.34" y="871.65" class="st3" width="699.45" height="75.35"/>
	<text transform="matrix(1 0 0 1 1402.9302 898.8652)" class="st4 st9">cartografia radical</text>
	<rect x="207" y="145.13" class="st3" width="335" height="258.89"/>
	<text transform="matrix(1 0 0 1 239.0449 163.2715)"><tspan x="0" y="0" class="st4 st8">necessidade de disputar o </tspan><tspan x="23.21" y="28.8" class="st4 st8">imaginário de futuro, </tspan><tspan x="-17.19" y="57.6" class="st4 st8">apresentando alternativas de </tspan><tspan x="-19.89" y="86.4" class="st4 st8">organização social, produção, </tspan><tspan x="-27.21" y="115.2" class="st4 st8">e, em foco nesse ensaio, design </tspan><tspan x="69.14" y="144" class="st4 st8">e construção</tspan></text>
	<rect x="1380" y="434.13" class="st3" width="335" height="64.87"/>
	<text transform="matrix(1 0 0 1 1416.0293 452.2715)"><tspan x="0" y="0" class="st4 st8">empoderar comunidades </tspan><tspan x="20.3" y="28.8" class="st4 st8">diretamente afetadas</tspan></text>
	<rect x="740" y="151.13" class="st3" width="439" height="138.87"/>
	<text transform="matrix(1 0 0 1 759.3896 178.3438)"><tspan x="0" y="0" class="st4 st9">como mobilizar agências, </tspan><tspan x="21.73" y="43.2" class="st4 st9">para futuro possíveis e </tspan><tspan x="111.46" y="86.4" class="st4 st9">desejáveis?</tspan></text>
	<rect x="464" y="578.13" class="st3" width="579" height="69.87"/>
	<text transform="matrix(1 0 0 1 509.7783 605.3438)" class="st4 st9">quem faz parte desses futuros?</text>
	<text transform="matrix(1 0 0 1 285.7615 889.1838)" class="st7 st10">(Haraway, 2016; 2022)</text>
	<polyline class="st11" points="2844.43,213.5 2133.62,213.5 1685.5,447.5 	"/>
	<polyline class="st11" points="1703.91,886 2133.5,223.5 2844.43,223.16 	"/>
</g>
<g id="placeholders">
</g>
<g id="linhas">
	<polygon class="st11" points="1547.5,-165.09 1547.5,421.5 1173.5,171.5 	"/>
	<rect x="1535" y="121" class="st14" width="27" height="27"/>
	<line x1="-526.55" y1="-258.54" x2="222" y2="155.34"/>
	<rect x="1541" y="121.21" class="st3" width="47.49" height="29.62"/>
	<text transform="matrix(1 0 0 1 1542 139.3564)" class="st4 st8">x</text>
	<line class="st11" x1="1169.65" y1="809.78" x2="960.67" y2="281.72"/>
	<line class="st11" x1="1340.5" y1="1241.5" x2="1194.87" y2="873.58"/>
	<line class="st11" x1="752.6" y1="188" x2="558.43" y2="188"/>
	<line class="st11" x1="1029.05" y1="281.72" x2="1529.5" y2="824.02"/>
	<line class="st11" x1="1547.5" y1="499" x2="1547.5" y2="824.02"/>
	<line class="st11" x1="899.5" y1="281.72" x2="760.5" y2="565.5"/>
	<rect x="252.5" y="791.5" class="st13" width="1044" height="110"/>
	<line class="st11" x1="497.83" y1="846.5" x2="649.96" y2="846.5"/>
	<line class="st11" x1="877.64" y1="846.5" x2="1096" y2="846.5"/>
	<line class="st11" x1="1364.42" y1="1241.5" x2="1548.5" y2="923.5"/>
	<line class="st19" x1="-849.5" y1="-135.5" x2="222" y2="169.13"/>
	<polyline class="st11" points="1696.5,144.5 1744,144.5 1744,1355 384.06,1355 384.06,1311.94 	"/>
	<line class="st11" x1="961" y1="1524.87" x2="961" y2="902"/>
	<polyline class="st11" points="-574.51,799.51 137.5,-149.5 552,-149.5 552,-195.04 	"/>
	<polyline class="st11" points="194.5,1264 196.5,-114.5 587,-114.5 587,-195.04 	"/>
	<polyline class="st13" points="1766.21,1079.47 1766.21,1273.5 1561.45,1273.5 	"/>
	<polyline class="st13" points="1800.23,1079.47 1800.23,1375.5 365,1375.5 365,1313.26 	"/>
	<polyline class="st11" points="95.4,0.62 95.4,846.5 253,846.5 	"/>
	<line class="st11" x1="177.5" y1="1288.5" x2="-564.51" y2="853.25"/>
</g>
<g id="diagramas">
	<g id="exponencial">
	</g>
	<g id="extraterrestre">
	</g>
	<g id="limites_x5F_planetarios">
	</g>
	<g id="Camada_13">
	</g>
</g>
</svg>
