<?xml version="1.0" encoding="utf-8"?>
<!-- Generator: Adobe Illustrator 27.0.1, SVG Export Plug-In . SVG Version: 6.00 Build 0)  -->
<svg version="1.1" xmlns="http://www.w3.org/2000/svg" xmlns:xlink="http://www.w3.org/1999/xlink" x="0px" y="0px"
	 viewBox="0 0 2560 1600" style="enable-background:new 0 0 2560 1600;" xml:space="preserve">
<style type="text/css">
	.st0{display:none;}
	.st1{display:inline;fill:none;stroke:#000000;stroke-linecap:round;stroke-linejoin:round;}
	.st2{display:inline;fill:none;stroke:#000000;stroke-width:1.4173;stroke-linecap:round;stroke-linejoin:round;}
	.st3{fill:none;stroke:#000000;stroke-width:1.5;stroke-miterlimit:10;}
	.st4{fill:none;stroke:#000000;stroke-miterlimit:10;}
	.st5{fill:none;stroke:#000000;stroke-width:0.5;stroke-miterlimit:10;}
</style>
<g id="Make2D::Visible::Curves" class="st0">
	<line class="st1" x1="1285.99" y1="1232.59" x2="1285.99" y2="1132.27"/>
	<polyline class="st1" points="1285.99,1370.38 1285.99,1360.02 1285.99,1237.47 	"/>
	<polyline class="st1" points="1314.79,1380.75 1285.99,1380.75 1141.09,1380.75 	"/>
	<line class="st1" x1="1150.48" y1="1135.37" x2="1149.07" y2="1172.33"/>
	<line class="st1" x1="1285.99" y1="1132.27" x2="1218.52" y2="1136.9"/>
	<line class="st1" x1="1285.99" y1="1132.27" x2="1353.8" y2="1136.92"/>
	<line class="st1" x1="1422.92" y1="1172.33" x2="1421.5" y2="1135.37"/>
	<line class="st1" x1="1128.15" y1="1134.85" x2="1218.52" y2="1136.93"/>
	<line class="st1" x1="1103" y1="1134.28" x2="1103" y2="1163.07"/>
	<line class="st1" x1="566.07" y1="1163.07" x2="1103" y2="1163.07"/>
	<line class="st1" x1="1468.99" y1="1163.07" x2="1355.38" y2="1220.36"/>
	<line class="st1" x1="1285.99" y1="804.97" x2="1285.99" y2="286.47"/>
	<polyline class="st1" points="1182.98,286.47 1285.99,286.47 1389,286.47 	"/>
	<line class="st1" x1="1444.1" y1="1134.85" x2="1353.93" y2="1136.92"/>
	<line class="st1" x1="1355.38" y1="1220.36" x2="1285.99" y2="1237.47"/>
	<line class="st1" x1="1218.22" y1="1136.92" x2="1218.71" y2="1136.93"/>
	<line class="st1" x1="1408.85" y1="804.95" x2="1421.31" y2="1130.29"/>
	<line class="st1" x1="1163.13" y1="804.95" x2="1150.67" y2="1130.34"/>
	<line class="st1" x1="1103" y1="1134.28" x2="566.07" y2="1105.48"/>
	<line class="st1" x1="1443.96" y1="1163.07" x2="1468.99" y2="1163.07"/>
	<line class="st1" x1="1149.59" y1="1163.07" x2="1128.03" y2="1163.07"/>
	<line class="st1" x1="1285.99" y1="1370.38" x2="1141.48" y2="1370.38"/>
	<line class="st1" x1="1430.5" y1="1370.38" x2="1285.99" y2="1370.38"/>
	<line class="st1" x1="1314.79" y1="1380.75" x2="1430.9" y2="1380.75"/>
	<line class="st1" x1="1216.61" y1="1220.36" x2="1103" y2="1163.07"/>
	<line class="st1" x1="1146.56" y1="1237.65" x2="1141.48" y2="1370.38"/>
	<line class="st1" x1="1430.5" y1="1370.38" x2="1425.43" y2="1237.77"/>
	<line class="st1" x1="1468.99" y1="1134.28" x2="1443.96" y2="1130.34"/>
	<line class="st1" x1="1103" y1="1134.28" x2="1128.03" y2="1130.34"/>
	<line class="st1" x1="1103" y1="1163.07" x2="1128.03" y2="1163.07"/>
	<line class="st1" x1="1468.99" y1="1163.07" x2="2005.91" y2="1163.07"/>
	<line class="st1" x1="1430.5" y1="1370.38" x2="1430.9" y2="1380.75"/>
	<line class="st1" x1="1285.99" y1="1370.38" x2="1285.99" y2="1380.75"/>
	<line class="st1" x1="1141.09" y1="1380.75" x2="1141.48" y2="1370.38"/>
	<line class="st1" x1="1216.61" y1="1220.36" x2="1146.57" y2="1237.47"/>
	<line class="st1" x1="566.07" y1="1163.07" x2="1146.57" y2="1237.47"/>
	<line class="st1" x1="1408.85" y1="804.95" x2="1389" y2="286.47"/>
	<line class="st1" x1="1163.13" y1="804.95" x2="1182.98" y2="286.47"/>
	<line class="st1" x1="1331.49" y1="1135.36" x2="1331.33" y2="1135.36"/>
	<line class="st1" x1="1218.22" y1="1136.92" x2="1218.77" y2="1136.88"/>
	<line class="st1" x1="1421.53" y1="1128.86" x2="2005.91" y2="1105.48"/>
	<line class="st1" x1="1303.27" y1="234.64" x2="1303.27" y2="286.47"/>
	<line class="st1" x1="1268.72" y1="234.64" x2="1268.72" y2="286.47"/>
	<polyline class="st1" points="1268.72,234.64 1269.3,234.64 1271.03,234.64 1273.78,234.64 1277.35,234.64 1281.52,234.64 
		1285.99,234.64 1290.47,234.64 1294.63,234.64 1298.21,234.64 1300.96,234.64 1302.68,234.64 1303.27,234.64 	"/>
	<line class="st1" x1="1468.99" y1="1134.28" x2="2005.91" y2="1105.48"/>
	<line class="st1" x1="1468.99" y1="1163.07" x2="1468.99" y2="1134.28"/>
	<line class="st1" x1="2005.91" y1="1105.48" x2="2005.91" y2="1163.07"/>
	<line class="st1" x1="1285.99" y1="1232.59" x2="1285.99" y2="1237.47"/>
	<line class="st1" x1="1285.99" y1="804.97" x2="1285.99" y2="1130.34"/>
	<line class="st1" x1="1285.99" y1="804.97" x2="1408.85" y2="804.95"/>
	<line class="st1" x1="1285.99" y1="804.97" x2="1163.13" y2="804.95"/>
	<line class="st1" x1="1443.91" y1="1163.07" x2="1422.56" y2="1163.07"/>
	<line class="st1" x1="566.07" y1="1105.48" x2="1150.73" y2="1128.87"/>
	<line class="st1" x1="566.07" y1="1105.48" x2="566.07" y2="1163.07"/>
	<line class="st1" x1="2005.91" y1="1163.07" x2="1425.42" y2="1237.47"/>
</g>
<g id="Make2D::Visible::ClippingPlaneIntersections" class="st0">
	<polyline class="st2" points="1285.99,1232.59 1340.92,1208.42 1443.96,1163.07 	"/>
	<line class="st2" x1="1128.03" y1="1163.07" x2="1285.99" y2="1232.59"/>
	<line class="st2" x1="1443.96" y1="1130.34" x2="1128.03" y2="1130.34"/>
	<polyline class="st2" points="1128.03,1130.34 1128.03,1155.19 1128.03,1163.07 	"/>
	<polyline class="st2" points="1443.96,1163.07 1443.96,1138.22 1443.96,1130.34 	"/>
</g>
<g id="Camada_3">
	<polygon points="2005.91,1105.48 2005.91,1163.07 1443.91,1163.07 1285.99,1232.59 1128.03,1163.07 566.07,1163.07 561.91,1105.48 
		1150.73,1128.87 1421.53,1128.86 	"/>
	<polyline class="st3" points="1421.53,1128.86 1389,286.47 1182.98,286.47 1150.73,1128.87 	"/>
	<polyline class="st3" points="2005.91,1163.07 1425.42,1237.47 1430.9,1380.75 1141.09,1380.75 1146.56,1237.65 566.07,1163.07 	
		"/>
	<polyline class="st4" points="1268.72,286.47 1269.3,234.64 1303.27,234.64 1303.27,286.47 	"/>
	<polyline class="st5" points="1425.43,1237.71 1355.38,1220.42 1468.99,1163.07 	"/>
	<polyline class="st5" points="1146.56,1237.65 1216.61,1220.36 1103,1163.07 	"/>
</g>
</svg>
