<?xml version="1.0" encoding="utf-8"?>
<!-- Generator: Adobe Illustrator 26.5.0, SVG Export Plug-In . SVG Version: 6.00 Build 0)  -->
<svg version="1.1" xmlns="http://www.w3.org/2000/svg" xmlns:xlink="http://www.w3.org/1999/xlink" x="0px" y="0px"
	 viewBox="0 0 1920 1696" style="enable-background:new 0 0 1920 1696;" xml:space="preserve">
<style type="text/css">
	.st0{fill:#FF00B3;}
	.st1{fill:none;stroke:#000000;stroke-width:2;stroke-miterlimit:10;stroke-dasharray:15,15;}
</style>
<g id="Camada_16">
	<polygon class="st0" points="416.5,1417.34 427.76,1452 464.2,1452 434.72,1473.42 445.98,1508.08 416.5,1486.66 387.02,1508.08 
		398.28,1473.42 368.8,1452 405.24,1452 	"/>
	<polygon class="st0" points="469.5,289.34 480.76,324 517.2,324 487.72,345.42 498.98,380.08 469.5,358.66 440.02,380.08 
		451.28,345.42 421.8,324 458.24,324 	"/>
	<polygon class="st0" points="1578.5,998.34 1589.76,1033 1626.2,1033 1596.72,1054.42 1607.98,1089.08 1578.5,1067.66 
		1549.02,1089.08 1560.28,1054.42 1530.8,1033 1567.24,1033 	"/>
</g>
<g id="Camada_15">
	<polygon class="st1" points="56.32,368.62 56.32,919 1224.98,919 1224.98,353.68 56.32,353.68 	"/>
	<polygon class="st1" points="1097.57,960.53 1258.53,960.53 1194.16,1170.5 701.36,1170.5 701.36,1060.32 1048,1060.32 	"/>
	<polygon class="st1" points="1081.5,944.5 1039.73,1026.22 664.49,1026.22 539.31,1386.94 83.13,1386.94 83.13,1114.5 
		578.63,944.5 	"/>
	<ellipse class="st1" cx="469.5" cy="361.5" rx="79.79" ry="103"/>
	<rect x="678.5" y="28.5" class="st1" width="880" height="303"/>
	<polygon class="st1" points="1584.45,121.72 1725.56,121.72 1890.02,297.34 1890.5,432.41 1682.14,431.63 1682.14,626.68 
		1645.9,666.36 1280.4,666.36 1280.4,356.56 1582.5,356.5 	"/>
	<polygon class="st1" points="701.36,1200.09 701.5,1385.5 1874.7,1385.14 1874.7,1090.27 1699.67,1090.27 1655.5,1199.5 	"/>
	<polygon class="st1" points="1875,1044 1280,1044 1280,715 1635.5,715.5 1707.13,633 1707.5,450.5 1875,450.5 	"/>
</g>
</svg>
