<?xml version="1.0" encoding="UTF-8"?><svg xmlns="http://www.w3.org/2000/svg" xmlns:xlink="http://www.w3.org/1999/xlink" viewBox="0 0 4462.37 666.38"><defs><style>.cls-1{stroke-width:.07px;}.cls-1,.cls-2,.cls-3,.cls-4,.cls-5,.cls-6{stroke:#000;}.cls-1,.cls-2,.cls-4,.cls-5,.cls-6,.cls-7{fill:none;}.cls-1,.cls-4,.cls-6{stroke-miterlimit:10;}.cls-8{fill:#fff;}.cls-2{stroke-width:2px;}.cls-2,.cls-3,.cls-5{stroke-linejoin:round;}.cls-3,.cls-5{stroke-linecap:round;}.cls-4{stroke-width:.11px;}.cls-6{stroke-width:.04px;}.cls-9{clip-path:url(#clippath);}</style><clipPath id="clippath"><rect class="cls-7" x="3124.5" y="177.81" width="183.2" height="114.5"/></clipPath></defs><g id="Camada_4"><g class="cls-9"><polygon points="3268.05 256.92 3268.05 261.04 3227.83 261.04 3216.53 266.02 3205.22 261.04 3165.01 261.04 3164.71 256.92 3206.85 258.59 3226.23 258.59 3268.05 256.92"/><polyline class="cls-4" points="3226.23 258.59 3223.9 198.31 3209.16 198.31 3206.85 258.59"/><polyline class="cls-4" points="3268.05 261.04 3226.51 266.36 3226.9 276.62 3206.16 276.62 3206.55 266.38 3165.01 261.04"/><polyline class="cls-1" points="3215.29 198.31 3215.33 194.6 3217.77 194.6 3217.77 198.31"/><polyline class="cls-6" points="3226.51 266.38 3221.49 265.14 3229.62 261.04"/><polyline class="cls-6" points="3206.55 266.38 3211.56 265.14 3203.43 261.04"/></g><g><g id="middleground"><line class="cls-5" x1="2322.4" y1="248.63" x2="2293.69" y2="248.63"/><line class="cls-5" x1="2322.4" y1="309.04" x2="2322.4" y2="248.63"/><line class="cls-5" x1="2293.69" y1="248.63" x2="2293.69" y2="309.04"/><line class="cls-5" x1="2293.69" y1="312.81" x2="2322.4" y2="312.81"/></g><g id="Layer_04"><line class="cls-5" x1="2293.69" y1="309.04" x2="2293.69" y2="312.81"/><line class="cls-5" x1="2322.4" y1="309.04" x2="2322.4" y2="312.81"/><polyline class="cls-3" points="2237.95 291.75 2327.46 291.76 2357.75 294.36 2357.75 290.69 2327.46 288.1 2237.95 288.1"/><polyline class="cls-3" points="2237.95 270.11 2327.46 270.13 2357.75 272.73 2357.75 269.06 2327.46 266.46 2237.95 266.46"/><polygon class="cls-5" points="2237.94 291.75 2237.94 292.09 2231.39 292.81 2167.07 300.13 2167.07 312.81 2092.22 312.81 2092.22 300 2022.59 292.09 2022.6 246.83 2025.22 246.81 2237.95 246.81 2237.95 266.78 2237.94 291.75"/></g><g id="background"><line class="cls-5" x1="2279.63" y1="312.81" x2="2254.26" y2="312.81"/><path class="cls-5" d="M2357.75,294.36c-12.78,3.2-24.56,6.1-35.35,8.69"/><path class="cls-5" d="M2293.69,305.14c-13.06,2.85-26.2,5.41-39.43,7.67"/><path class="cls-5" d="M2342.36,293.04c-6.63,1.85-13.29,3.63-19.97,5.32"/><path class="cls-5" d="M2293.69,283.82c-6.9,1.51-13.83,2.93-20.78,4.27"/><path class="cls-5" d="M2342.36,271.73c-6.63,1.85-13.29,3.63-19.97,5.32"/><path class="cls-5" d="M2357.75,273.05c-12.78,3.2-24.56,6.1-35.35,8.69"/><path class="cls-5" d="M2293.69,309.73c-5.01,1.12-9.69,2.15-14.06,3.07"/></g></g></g><g id="Camada_3"><path class="cls-8" d="M1566.5,301.57s63.23,2.07,104.36,1.9,69.11,.03,81.13,.93,92.45,8.14,122.23,8.52,312.8,.62,337.79,0,50.29-3.16,60.14-2.89,50.77,1.18,57.31,1.23,142.55,.4,171.04,.22,177.01-4.28,193.25-4.73,81.55,23.36,146.9,20.96,145.66-14.5,177.51-21.45,106.03-28.69,106.03-28.69c0,0,79.57-2.49,83.69-2.38s21.45,2.15,29.79,2.13c8.34-.02,55.6-1,66.47,0v135.53H1566.5v-111.28Z"/></g><g id="Camada_2"><path class="cls-5" d="M1566.5,301.57s63.23,2.07,104.36,1.9,69.11,.03,81.13,.93,92.45,8.14,122.23,8.52,312.8,.62,337.79,0,50.29-3.16,60.14-2.89,50.77,1.18,57.31,1.23,142.55,.4,171.04,.22,177.01-4.28,193.25-4.73,81.55,23.36,146.9,20.96,145.66-14.5,177.51-21.45,106.03-28.69,106.03-28.69c0,0,79.57-2.49,83.69-2.38s21.45,2.15,29.79,2.13c8.34-.02,55.6-1,66.47,0"/><polyline class="cls-2" points="1576.5 0 1576.5 260.81 1615.5 260.81 1535.5 327.81 1576.5 327.88 1576.5 666.38"/><polyline class="cls-2" points="3286.5 0 3286.5 260.81 3325.5 260.81 3245.5 327.81 3286.5 327.88 3286.5 666.38"/></g></svg>