<?xml version="1.0" encoding="UTF-8"?><svg id="a" xmlns="http://www.w3.org/2000/svg" xmlns:xlink="http://www.w3.org/1999/xlink" viewBox="0 0 413.1 204.6"><defs><style>.j{opacity:.72;}.k{stroke-linecap:square;}.k,.l,.m,.n,.o,.p,.q,.r,.s,.t,.u{stroke:#1d1d1b;}.k,.m,.v,.w,.x,.n,.y,.p,.z,.q,.aa,.ab,.ac,.t{fill:none;}.k,.t{stroke-width:.3px;}.ad,.ae,.af{fill:url(#b);}.ad,.ag,.ah,.ai{opacity:.55;}.aj{letter-spacing:-.03em;}.ak{font-family:Bahnschrift, Bahnschrift;font-size:4px;font-variation-settings:'wght' 400, 'wdth' 100;}.ak,.al,.am,.an,.ao,.ap{fill:#1d1d1b;}.aq{opacity:.31;}.ar{fill:url(#h);opacity:.38;}.l{font-family:Arial-Black, Arial;font-size:7.29px;font-weight:800;stroke-width:.3px;}.l,.as,.m,.v,.ae,.at,.x,.n,.o,.y,.z,.aa,.ac,.r,.s,.au,.u{stroke-miterlimit:10;}.l,.at,.r,.s{fill:#fff;}.as{fill:url(#c);stroke-width:3px;}.as,.x,.y{stroke:#a3a2a2;}.m{stroke-width:.75px;}.al{font-family:MinionVariableConcept-Italic, 'Minion Variable Concept';font-size:6px;font-style:italic;font-variation-settings:'wght' 400, 'opsz' 11;}.am{font-size:12px;}.am,.ao,.ap{font-family:SourceSerifVariable-Roman, 'Source Serif Variable';font-variation-settings:'wght' 389;}.v,.ae,.at,.z,.aa,.ac,.au{stroke:#010101;}.ae,.at,.x,.z,.s,.au,.u{stroke-width:.5px;}.av{letter-spacing:-.02em;}.w{stroke:#1e1e1c;stroke-width:.65px;}.aw{letter-spacing:0em;}.ax{letter-spacing:-.01em;}.ay{letter-spacing:-.06em;}.o,.u{fill:#f4f4f4;}.y,.p{stroke-width:2px;}.p{stroke-dasharray:0 0 2 1;}.az{letter-spacing:0em;}.ba,.ah{fill:url(#e);}.ba,.af{opacity:.22;}.an{font-family:Arial-BoldMT, Arial;font-size:5.09px;font-weight:700;}.bb{letter-spacing:-.03em;}.bc{letter-spacing:0em;}.ao{font-size:12.11px;}.q{stroke-linecap:round;}.aa{stroke-width:1.5px;}.ac{stroke-width:.25px;}.bd{letter-spacing:-.02em;}.ag{fill:url(#f);}.be{letter-spacing:0em;}.bf{letter-spacing:0em;}.ai{fill:url(#g);}.au{fill:url(#d);opacity:.54;}.ap{font-size:10px;}.bg{letter-spacing:-.01em;}</style><pattern id="b" x="0" y="0" width="72" height="72" patternTransform="translate(-108.39 -582.24)" patternUnits="userSpaceOnUse" viewBox="0 0 72 72"><g><rect class="ab" width="72" height="72"/><g><line class="t" x1="45" y1="71.75" x2="45" y2="144.25"/><line class="t" x1="9" y1="71.75" x2="9" y2="144.25"/><line class="t" x1="63" y1="71.75" x2="63" y2="144.25"/><line class="t" x1="27" y1="71.75" x2="27" y2="144.25"/></g><g><line class="t" x1="71.75" y1="9" x2="144.25" y2="9"/><line class="t" x1="71.75" y1="45" x2="144.25" y2="45"/><line class="t" x1="71.75" y1="27" x2="144.25" y2="27"/><line class="t" x1="71.75" y1="63" x2="144.25" y2="63"/></g><g><line class="t" x1="-.25" y1="9" x2="72.25" y2="9"/><line class="t" x1="-.25" y1="45" x2="72.25" y2="45"/><line class="t" x1="-.25" y1="27" x2="72.25" y2="27"/><line class="t" x1="-.25" y1="63" x2="72.25" y2="63"/><line class="t" x1="45" y1="-.25" x2="45" y2="72.25"/><line class="t" x1="9" y1="-.25" x2="9" y2="72.25"/><line class="t" x1="63" y1="-.25" x2="63" y2="72.25"/><line class="t" x1="27" y1="-.25" x2="27" y2="72.25"/></g><g><line class="t" x1="-72.25" y1="9" x2=".25" y2="9"/><line class="t" x1="-72.25" y1="45" x2=".25" y2="45"/><line class="t" x1="-72.25" y1="27" x2=".25" y2="27"/><line class="t" x1="-72.25" y1="63" x2=".25" y2="63"/></g><g><line class="t" x1="45" y1="-72.25" x2="45" y2=".25"/><line class="t" x1="9" y1="-72.25" x2="9" y2=".25"/><line class="t" x1="63" y1="-72.25" x2="63" y2=".25"/><line class="t" x1="27" y1="-72.25" x2="27" y2=".25"/></g></g></pattern><pattern id="c" x="0" y="0" width="57.6" height="43.2" patternTransform="translate(-122.79 -611.03)" patternUnits="userSpaceOnUse" viewBox="0 0 57.6 43.2"><g><rect class="ab" x="0" y="0" width="57.6" height="43.2"/><g><line class="k" x1="57.59" y1=".8" x2="115.21" y2=".8"/><line class="k" x1="57.59" y1="8" x2="115.21" y2="8"/><line class="k" x1="57.59" y1="15.2" x2="115.21" y2="15.2"/><line class="k" x1="57.59" y1="22.4" x2="115.21" y2="22.4"/><line class="k" x1="57.59" y1="29.6" x2="115.21" y2="29.6"/><line class="k" x1="57.59" y1="36.8" x2="115.21" y2="36.8"/></g><g><line class="t" x1="53.96" y1="8.01" x2="53.96" y2="15.2"/><line class="t" x1="39.56" y1="8.01" x2="39.56" y2="15.2"/><line class="t" x1="25.16" y1="8.01" x2="25.16" y2="15.2"/><line class="t" x1="10.76" y1="8.01" x2="10.76" y2="15.2"/><line class="t" x1="53.96" y1="22.38" x2="53.96" y2="29.57"/><line class="t" x1="39.56" y1="22.38" x2="39.56" y2="29.57"/><line class="t" x1="25.16" y1="22.38" x2="25.16" y2="29.57"/><line class="t" x1="10.76" y1="22.38" x2="10.76" y2="29.57"/><line class="t" x1="53.96" y1="36.82" x2="53.96" y2="44.2"/><line class="t" x1="39.56" y1="36.82" x2="39.56" y2="44.2"/><line class="t" x1="25.16" y1="36.82" x2="25.16" y2="44.2"/><line class="t" x1="10.76" y1="36.82" x2="10.76" y2="44.2"/><line class="t" x1="46.75" y1="29.57" x2="46.75" y2="36.76"/><line class="t" x1="32.35" y1="29.57" x2="32.35" y2="36.76"/><line class="t" x1="17.95" y1="29.57" x2="17.95" y2="36.76"/><line class="t" x1="3.55" y1="29.57" x2="3.55" y2="36.76"/><line class="t" x1="46.75" y1="15.2" x2="46.75" y2="22.38"/><line class="t" x1="32.35" y1="15.2" x2="32.35" y2="22.38"/><line class="t" x1="17.95" y1="15.2" x2="17.95" y2="22.38"/><line class="t" x1="3.55" y1="15.2" x2="3.55" y2="22.38"/><line class="t" x1="46.75" y1=".82" x2="46.75" y2="8.01"/><line class="t" x1="32.35" y1=".82" x2="32.35" y2="8.01"/><line class="t" x1="17.95" y1=".82" x2="17.95" y2="8.01"/><line class="t" x1="3.55" y1=".82" x2="3.55" y2="8.01"/><line class="k" x1="-.01" y1=".8" x2="57.61" y2=".8"/><line class="k" x1="-.01" y1="8" x2="57.61" y2="8"/><line class="k" x1="-.01" y1="15.2" x2="57.61" y2="15.2"/><line class="k" x1="-.01" y1="22.4" x2="57.61" y2="22.4"/><line class="k" x1="-.01" y1="29.6" x2="57.61" y2="29.6"/><line class="k" x1="-.01" y1="36.8" x2="57.61" y2="36.8"/><path class="t" d="M3.56,42.36c1.08,0,1.96-.88,1.96-1.96s-.88-1.96-1.96-1.96-1.96,.88-1.96,1.96,.88,1.96,1.96,1.96Z"/><path class="t" d="M17.96,42.36c1.09,0,1.96-.88,1.96-1.96s-.88-1.96-1.96-1.96-1.96,.88-1.96,1.96,.88,1.96,1.96,1.96Z"/><path class="t" d="M32.36,42.36c1.08,0,1.96-.88,1.96-1.96s-.88-1.96-1.96-1.96-1.96,.88-1.96,1.96,.88,1.96,1.96,1.96Z"/><path class="t" d="M46.76,42.36c1.08,0,1.96-.88,1.96-1.96s-.88-1.96-1.96-1.96-1.96,.88-1.96,1.96,.88,1.96,1.96,1.96Z"/><path class="t" d="M10.76,35.16c1.08,0,1.96-.88,1.96-1.96s-.88-1.96-1.96-1.96-1.96,.88-1.96,1.96,.88,1.96,1.96,1.96Z"/><path class="t" d="M25.16,35.16c1.08,0,1.96-.88,1.96-1.96s-.88-1.96-1.96-1.96-1.96,.88-1.96,1.96,.88,1.96,1.96,1.96Z"/><path class="t" d="M39.56,35.16c1.08,0,1.96-.88,1.96-1.96s-.88-1.96-1.96-1.96-1.96,.88-1.96,1.96,.88,1.96,1.96,1.96Z"/><path class="t" d="M53.96,35.16c1.08,0,1.96-.88,1.96-1.96s-.88-1.96-1.96-1.96-1.96,.88-1.96,1.96,.88,1.96,1.96,1.96Z"/><path class="t" d="M3.56,27.96c1.08,0,1.96-.88,1.96-1.96s-.88-1.96-1.96-1.96-1.96,.88-1.96,1.96,.88,1.96,1.96,1.96Z"/><path class="t" d="M17.96,27.96c1.09,0,1.96-.88,1.96-1.96s-.88-1.96-1.96-1.96-1.96,.88-1.96,1.96,.88,1.96,1.96,1.96Z"/><path class="t" d="M32.36,27.96c1.08,0,1.96-.88,1.96-1.96s-.88-1.96-1.96-1.96-1.96,.88-1.96,1.96,.88,1.96,1.96,1.96Z"/><path class="t" d="M46.76,27.96c1.08,0,1.96-.88,1.96-1.96s-.88-1.96-1.96-1.96-1.96,.88-1.96,1.96,.88,1.96,1.96,1.96Z"/><path class="t" d="M10.76,20.76c1.08,0,1.96-.88,1.96-1.96s-.88-1.96-1.96-1.96-1.96,.88-1.96,1.96,.88,1.96,1.96,1.96Z"/><path class="t" d="M25.16,20.76c1.08,0,1.96-.88,1.96-1.96s-.88-1.96-1.96-1.96-1.96,.88-1.96,1.96,.88,1.96,1.96,1.96Z"/><path class="t" d="M39.56,20.76c1.08,0,1.96-.88,1.96-1.96s-.88-1.96-1.96-1.96-1.96,.88-1.96,1.96,.88,1.96,1.96,1.96Z"/><path class="t" d="M53.96,20.76c1.08,0,1.96-.88,1.96-1.96s-.88-1.96-1.96-1.96-1.96,.88-1.96,1.96,.88,1.96,1.96,1.96Z"/><path class="t" d="M3.56,13.56c1.08,0,1.96-.88,1.96-1.96s-.88-1.96-1.96-1.96-1.96,.88-1.96,1.96,.88,1.96,1.96,1.96Z"/><path class="t" d="M17.96,13.56c1.09,0,1.96-.88,1.96-1.96s-.88-1.96-1.96-1.96-1.96,.88-1.96,1.96,.88,1.96,1.96,1.96Z"/><path class="t" d="M32.36,13.56c1.08,0,1.96-.88,1.96-1.96s-.88-1.96-1.96-1.96-1.96,.88-1.96,1.96,.88,1.96,1.96,1.96Z"/><path class="t" d="M46.76,13.56c1.08,0,1.96-.88,1.96-1.96s-.88-1.96-1.96-1.96-1.96,.88-1.96,1.96,.88,1.96,1.96,1.96Z"/><path class="t" d="M10.76,6.36c1.08,0,1.96-.88,1.96-1.96s-.88-1.96-1.96-1.96-1.96,.88-1.96,1.96,.88,1.96,1.96,1.96Z"/><path class="t" d="M25.16,6.36c1.08,0,1.96-.88,1.96-1.96s-.88-1.96-1.96-1.96-1.96,.88-1.96,1.96,.88,1.96,1.96,1.96Z"/><path class="t" d="M39.56,6.36c1.08,0,1.96-.88,1.96-1.96s-.88-1.96-1.96-1.96-1.96,.88-1.96,1.96,.88,1.96,1.96,1.96Z"/><path class="t" d="M53.96,6.36c1.08,0,1.96-.88,1.96-1.96s-.88-1.96-1.96-1.96-1.96,.88-1.96,1.96,.88,1.96,1.96,1.96Z"/><line class="q" x1="3.56" y1="40.4" x2="3.56" y2="40.4"/><line class="q" x1="17.96" y1="40.4" x2="17.96" y2="40.4"/><line class="q" x1="32.36" y1="40.4" x2="32.36" y2="40.4"/><line class="q" x1="46.76" y1="40.4" x2="46.76" y2="40.4"/><line class="q" x1="10.76" y1="33.2" x2="10.76" y2="33.2"/><line class="q" x1="25.16" y1="33.2" x2="25.16" y2="33.2"/><line class="q" x1="39.56" y1="33.2" x2="39.56" y2="33.2"/><line class="q" x1="53.96" y1="33.2" x2="53.96" y2="33.2"/><line class="q" x1="3.56" y1="26" x2="3.56" y2="26"/><line class="q" x1="17.96" y1="26" x2="17.96" y2="26"/><line class="q" x1="32.36" y1="26" x2="32.36" y2="26"/><line class="q" x1="46.76" y1="26" x2="46.76" y2="26"/><line class="q" x1="10.76" y1="18.8" x2="10.76" y2="18.8"/><line class="q" x1="25.16" y1="18.8" x2="25.16" y2="18.8"/><line class="q" x1="39.56" y1="18.8" x2="39.56" y2="18.8"/><line class="q" x1="53.96" y1="18.8" x2="53.96" y2="18.8"/><line class="q" x1="3.56" y1="11.6" x2="3.56" y2="11.6"/><line class="q" x1="17.96" y1="11.6" x2="17.96" y2="11.6"/><line class="q" x1="32.36" y1="11.6" x2="32.36" y2="11.6"/><line class="q" x1="46.76" y1="11.6" x2="46.76" y2="11.6"/><line class="q" x1="10.76" y1="4.4" x2="10.76" y2="4.4"/><line class="q" x1="25.16" y1="4.4" x2="25.16" y2="4.4"/><line class="q" x1="39.56" y1="4.4" x2="39.56" y2="4.4"/><line class="q" x1="53.96" y1="4.4" x2="53.96" y2="4.4"/></g><g><line class="k" x1="-57.61" y1=".8" x2=".01" y2=".8"/><line class="k" x1="-57.61" y1="8" x2=".01" y2="8"/><line class="k" x1="-57.61" y1="15.2" x2=".01" y2="15.2"/><line class="k" x1="-57.61" y1="22.4" x2=".01" y2="22.4"/><line class="k" x1="-57.61" y1="29.6" x2=".01" y2="29.6"/><line class="k" x1="-57.61" y1="36.8" x2=".01" y2="36.8"/></g><g><line class="t" x1="53.96" y1="-6.38" x2="53.96" y2="1"/><line class="t" x1="39.56" y1="-6.38" x2="39.56" y2="1"/><line class="t" x1="25.16" y1="-6.38" x2="25.16" y2="1"/><line class="t" x1="10.76" y1="-6.38" x2="10.76" y2="1"/></g></g></pattern><pattern id="d" x="0" y="0" width="72" height="72" patternTransform="translate(-108.39 -582.24)" patternUnits="userSpaceOnUse" viewBox="0 0 72 72"><g><rect class="ab" width="72" height="72"/><g><line class="p" x1=".5" y1="70.5" x2="72.5" y2="70.5"/><line class="p" x1=".5" y1="67.5" x2="72.5" y2="67.5"/><line class="p" x1=".5" y1="64.5" x2="72.5" y2="64.5"/><line class="p" x1=".5" y1="61.5" x2="72.5" y2="61.5"/><line class="p" x1=".5" y1="58.5" x2="72.5" y2="58.5"/><line class="p" x1=".5" y1="55.5" x2="72.5" y2="55.5"/><line class="p" x1=".5" y1="52.5" x2="72.5" y2="52.5"/><line class="p" x1=".5" y1="49.5" x2="72.5" y2="49.5"/><line class="p" x1=".5" y1="46.5" x2="72.5" y2="46.5"/><line class="p" x1=".5" y1="43.5" x2="72.5" y2="43.5"/><line class="p" x1=".5" y1="40.5" x2="72.5" y2="40.5"/><line class="p" x1=".5" y1="37.5" x2="72.5" y2="37.5"/><line class="p" x1=".5" y1="34.5" x2="72.5" y2="34.5"/><line class="p" x1=".5" y1="31.5" x2="72.5" y2="31.5"/><line class="p" x1=".5" y1="28.5" x2="72.5" y2="28.5"/><line class="p" x1=".5" y1="25.5" x2="72.5" y2="25.5"/><line class="p" x1=".5" y1="22.5" x2="72.5" y2="22.5"/><line class="p" x1=".5" y1="19.5" x2="72.5" y2="19.5"/><line class="p" x1=".5" y1="16.5" x2="72.5" y2="16.5"/><line class="p" x1=".5" y1="13.5" x2="72.5" y2="13.5"/><line class="p" x1=".5" y1="10.5" x2="72.5" y2="10.5"/><line class="p" x1=".5" y1="7.5" x2="72.5" y2="7.5"/><line class="p" x1=".5" y1="4.5" x2="72.5" y2="4.5"/><line class="p" x1=".5" y1="1.5" x2="72.5" y2="1.5"/></g><g><line class="p" x1="-71.5" y1="70.5" x2=".5" y2="70.5"/><line class="p" x1="-71.5" y1="67.5" x2=".5" y2="67.5"/><line class="p" x1="-71.5" y1="64.5" x2=".5" y2="64.5"/><line class="p" x1="-71.5" y1="61.5" x2=".5" y2="61.5"/><line class="p" x1="-71.5" y1="58.5" x2=".5" y2="58.5"/><line class="p" x1="-71.5" y1="55.5" x2=".5" y2="55.5"/><line class="p" x1="-71.5" y1="52.5" x2=".5" y2="52.5"/><line class="p" x1="-71.5" y1="49.5" x2=".5" y2="49.5"/><line class="p" x1="-71.5" y1="46.5" x2=".5" y2="46.5"/><line class="p" x1="-71.5" y1="43.5" x2=".5" y2="43.5"/><line class="p" x1="-71.5" y1="40.5" x2=".5" y2="40.5"/><line class="p" x1="-71.5" y1="37.5" x2=".5" y2="37.5"/><line class="p" x1="-71.5" y1="34.5" x2=".5" y2="34.5"/><line class="p" x1="-71.5" y1="31.5" x2=".5" y2="31.5"/><line class="p" x1="-71.5" y1="28.5" x2=".5" y2="28.5"/><line class="p" x1="-71.5" y1="25.5" x2=".5" y2="25.5"/><line class="p" x1="-71.5" y1="22.5" x2=".5" y2="22.5"/><line class="p" x1="-71.5" y1="19.5" x2=".5" y2="19.5"/><line class="p" x1="-71.5" y1="16.5" x2=".5" y2="16.5"/><line class="p" x1="-71.5" y1="13.5" x2=".5" y2="13.5"/><line class="p" x1="-71.5" y1="10.5" x2=".5" y2="10.5"/><line class="p" x1="-71.5" y1="7.5" x2=".5" y2="7.5"/><line class="p" x1="-71.5" y1="4.5" x2=".5" y2="4.5"/><line class="p" x1="-71.5" y1="1.5" x2=".5" y2="1.5"/></g></g></pattern><pattern id="e" x="0" y="0" width="73.12" height="72" patternTransform="translate(-102.79 -582.24)" patternUnits="userSpaceOnUse" viewBox="0 0 73.12 72"><g><rect class="ab" width="73.12" height="72"/><line class="w" x1="12.74" y1="72" x2="12.74"/><line class="w" x1="31.02" y1="72" x2="31.02"/><line class="w" x1="49.3" y1="72" x2="49.3"/><line class="w" x1="67.58" y1="72" x2="67.58"/><line class="w" x1="5.54" y1="72" x2="5.54"/><line class="w" x1="23.82" y1="72" x2="23.82"/><line class="w" x1="42.1" y1="72" x2="42.1"/><line class="w" x1="60.38" y1="72" x2="60.38"/></g></pattern><pattern id="f" patternTransform="translate(-64.04 -583.25)" xlink:href="#e"/><pattern id="g" patternTransform="translate(-64.04 -583.25)" xlink:href="#b"/><pattern id="h" x="0" y="0" width="72" height="72" patternTransform="translate(-64.04 -583.25)" patternUnits="userSpaceOnUse" viewBox="0 0 72 72"><g><rect class="ab" width="72" height="72"/><g><line class="t" x1="6" y1="71.75" x2="6" y2="144.25"/><line class="t" x1="30" y1="71.75" x2="30" y2="144.25"/><line class="t" x1="54" y1="71.75" x2="54" y2="144.25"/><line class="t" x1="18" y1="71.75" x2="18" y2="144.25"/><line class="t" x1="42" y1="71.75" x2="42" y2="144.25"/><line class="t" x1="66" y1="71.75" x2="66" y2="144.25"/></g><g><line class="t" x1="71.75" y1="66" x2="144.25" y2="66"/><line class="t" x1="71.75" y1="42" x2="144.25" y2="42"/><line class="t" x1="71.75" y1="18" x2="144.25" y2="18"/><line class="t" x1="71.75" y1="54" x2="144.25" y2="54"/><line class="t" x1="71.75" y1="30" x2="144.25" y2="30"/><line class="t" x1="71.75" y1="6" x2="144.25" y2="6"/></g><g><line class="t" x1="6" y1="-.25" x2="6" y2="72.25"/><line class="t" x1="30" y1="-.25" x2="30" y2="72.25"/><line class="t" x1="54" y1="-.25" x2="54" y2="72.25"/><line class="t" x1="-.25" y1="66" x2="72.25" y2="66"/><line class="t" x1="-.25" y1="42" x2="72.25" y2="42"/><line class="t" x1="-.25" y1="18" x2="72.25" y2="18"/><line class="t" x1="-.25" y1="54" x2="72.25" y2="54"/><line class="t" x1="-.25" y1="30" x2="72.25" y2="30"/><line class="t" x1="-.25" y1="6" x2="72.25" y2="6"/><line class="t" x1="18" y1="-.25" x2="18" y2="72.25"/><line class="t" x1="42" y1="-.25" x2="42" y2="72.25"/><line class="t" x1="66" y1="-.25" x2="66" y2="72.25"/></g><g><line class="t" x1="-72.25" y1="66" x2=".25" y2="66"/><line class="t" x1="-72.25" y1="42" x2=".25" y2="42"/><line class="t" x1="-72.25" y1="18" x2=".25" y2="18"/><line class="t" x1="-72.25" y1="54" x2=".25" y2="54"/><line class="t" x1="-72.25" y1="30" x2=".25" y2="30"/><line class="t" x1="-72.25" y1="6" x2=".25" y2="6"/></g><g><line class="t" x1="6" y1="-72.25" x2="6" y2=".25"/><line class="t" x1="30" y1="-72.25" x2="30" y2=".25"/><line class="t" x1="54" y1="-72.25" x2="54" y2=".25"/><line class="t" x1="18" y1="-72.25" x2="18" y2=".25"/><line class="t" x1="42" y1="-72.25" x2="42" y2=".25"/><line class="t" x1="66" y1="-72.25" x2="66" y2=".25"/></g></g></pattern></defs><rect class="v" x="26.29" y="102.97" width="185.62" height="70.38"/><rect class="z" x="32.72" y="102.97" width="106.63" height="36.44"/><rect class="ae" x="26.29" y="139.41" width="185.62" height="33.94"/><rect class="u" x="145.78" y="102.97" width="48.26" height="70.38"/><rect class="aa" x="89.61" y="105.52" width="53.62" height="67.82"/><g><line class="ac" x1="93.16" y1="173.35" x2="93.16" y2="105.52"/><line class="ac" x1="96.29" y1="173.35" x2="96.29" y2="105.52"/><line class="ac" x1="99.42" y1="173.35" x2="99.42" y2="105.52"/><line class="ac" x1="102.55" y1="173.35" x2="102.55" y2="105.52"/><line class="ac" x1="105.68" y1="173.35" x2="105.68" y2="105.52"/><line class="ac" x1="108.8" y1="173.35" x2="108.8" y2="105.52"/><line class="ac" x1="111.93" y1="173.35" x2="111.93" y2="105.52"/><line class="ac" x1="115.06" y1="173.35" x2="115.06" y2="105.52"/><line class="ac" x1="118.19" y1="173.35" x2="118.19" y2="105.52"/><line class="ac" x1="121.32" y1="173.35" x2="121.32" y2="105.52"/><line class="ac" x1="124.45" y1="173.35" x2="124.45" y2="105.52"/><line class="ac" x1="127.58" y1="173.35" x2="127.58" y2="105.52"/><line class="ac" x1="130.71" y1="173.35" x2="130.71" y2="105.52"/><line class="ac" x1="133.84" y1="173.35" x2="133.84" y2="105.52"/><line class="ac" x1="136.97" y1="173.35" x2="136.97" y2="105.52"/><line class="ac" x1="140.1" y1="173.35" x2="140.1" y2="105.52"/><line class="z" x1="89.61" y1="122.48" x2="143.23" y2="122.48"/><line class="z" x1="89.61" y1="156.39" x2="143.23" y2="156.39"/><line class="z" x1="89.61" y1="139.44" x2="143.23" y2="139.44"/></g><rect class="at" x="26.29" y="91.74" width="185.62" height="11.23"/><rect class="x" x="169.91" y="35.69" width="42" height="31.79"/><rect class="x" x="118.19" y="35.69" width="51.39" height="31.79"/><line class="as" x1="118.19" y1="45.87" x2="211.91" y2="45.87"/><rect class="au" x="180.76" y="49.48" width="20.3" height="5.94"/><rect class="au" x="143.89" y="49.48" width="20.3" height="5.94"/><rect class="au" x="122.93" y="49.48" width="9.06" height="5.94"/><rect class="x" x="180.76" y="49.48" width="20.3" height="5.94"/><rect class="x" x="143.89" y="49.48" width="20.3" height="5.94"/><rect class="x" x="122.93" y="49.48" width="9.06" height="5.94"/><line class="y" x1="212.47" y1="35.69" x2="111.55" y2="35.69"/><rect class="at" x="26.29" y="67.48" width="185.62" height="24.26"/><g class="aq"><rect class="ba" x="26.29" y="67.48" width="185.62" height="24.26"/><rect class="af" x="26.29" y="67.48" width="185.62" height="24.26"/></g><g class="j"><rect class="ah" x="26.29" y="91.74" width="185.62" height="8.68"/><rect class="ad" x="26.29" y="91.74" width="185.62" height="8.68"/><rect class="n" x="26.29" y="91.74" width="185.62" height="8.68"/></g><g><rect class="s" x="32.72" y="105.55" width="107.38" height="15.87"/><text class="l" transform="translate(35.12 112.79)"><tspan x="0" y="0">PEIXARIA DO </tspan><tspan class="ay" x="55.5" y="0">V</tspan><tspan x="60.75" y="0">ALDEVINO</tspan></text><text class="an" transform="translate(80.95 118.87)"><tspan x="0" y="0">8700-9127</tspan></text></g><g><rect class="o" x="212.47" y="67.48" width="149.54" height="105.86"/><rect class="m" x="219.47" y="101.96" width="74.88" height="36.44"/><g class="j"><rect class="ag" x="212.47" y="34.69" width="166.13" height="32.79"/><rect class="ai" x="212.47" y="34.69" width="166.13" height="32.79"/><rect class="n" x="212.47" y="34.69" width="166.13" height="32.79"/></g><polygon class="s" points="219.47 67.48 219.47 138.43 299.62 138.43 299.62 173.35 212.47 173.35 212.47 67.48 219.47 67.48"/><text class="ao" transform="translate(215.05 149.97) scale(.81 1)"><tspan class="bg" x="0" y="0">P</tspan><tspan x="7" y="0">EIX</tspan><tspan class="bf" x="26.64" y="0">A</tspan><tspan class="bc" x="34.55" y="0">RIA </tspan><tspan class="bg" x="57.76" y="0">F</tspan><tspan x="64.65" y="0">I</tspan><tspan class="bb" x="69.13" y="0">D</tspan><tspan x="77.36" y="0">E</tspan><tspan class="bd" x="84.68" y="0">L</tspan><tspan x="91.67" y="0">IS</tspan></text><g><polygon class="r" points="216.26 107.65 324.98 107.06 324.16 69.01 215.49 71.34 216.26 107.65"/><text class="am" transform="translate(223.61 83.82) rotate(-1.12) scale(1.43 1)"><tspan class="ax" x="0" y="0">P</tspan><tspan x="6.94" y="0">EIX</tspan><tspan class="ax" x="26.4" y="0">A</tspan><tspan x="34.24" y="0">RIA</tspan></text><text class="ap" transform="translate(278.91 93.43) rotate(-1.12) scale(1.17 1)"><tspan class="aw" x="0" y="0">F</tspan><tspan x="5.69" y="0">I</tspan><tspan class="aj" x="9.39" y="0">D</tspan><tspan class="az" x="16.19" y="0">E</tspan><tspan class="av" x="22.23" y="0">L</tspan><tspan x="28" y="0">IS</tspan></text><text class="al" transform="translate(265.03 102.39) rotate(-1.12) scale(.94 1)"><tspan x="0" y="0">(83) 98836-8125</tspan></text><text class="ak" transform="translate(306.5 99.45) rotate(1.73) scale(.94 1)"><tspan x="0" y="0">o</tspan><tspan class="be" x="2.18" y="0">r</tspan><tspan x="3.85" y="0">g.</tspan><tspan x="-3.57" y="4.8">Luciano</tspan></text></g><rect class="ar" x="219.47" y="107.43" width="74.88" height="30.98"/><line class="r" x1="256.91" y1="138.41" x2="256.91" y2="107.65"/><rect class="s" x="356.9" y="67.48" width="21.7" height="105.86"/></g><rect class="n" x="212.47" y="67.48" width="166.13" height="105.86"/><rect class="at" x="23.23" y="100.42" width="191.49" height="5.11" rx="2.55" ry="2.55"/></svg>